<?xml version="1.0" encoding="UTF-8" standalone="no"?>
<svg
   xmlns:dc="http://purl.org/dc/elements/1.1/"
   xmlns:cc="http://creativecommons.org/ns#"
   xmlns:rdf="http://www.w3.org/1999/02/22-rdf-syntax-ns#"
   xmlns:svg="http://www.w3.org/2000/svg"
   xmlns="http://www.w3.org/2000/svg"
   xmlns:sodipodi="http://sodipodi.sourceforge.net/DTD/sodipodi-0.dtd"
   xmlns:inkscape="http://www.inkscape.org/namespaces/inkscape"
   version="1.1"
   x="0px"
   y="0px"
   viewBox="0 0 100 125"
   enable-background="new 0 0 100 100"
   xml:space="preserve"
   id="svg2"
   inkscape:version="0.48.4 r9939"
   width="100%"
   height="100%"
   sodipodi:docname="noun_16957_cc.svg"
   inkscape:export-filename="C:\Users\riccardo\Downloads\eye.png"
   inkscape:export-xdpi="90"
   inkscape:export-ydpi="90"><metadata
     id="metadata126"><rdf:RDF><cc:Work
         rdf:about=""><dc:format>image/svg+xml</dc:format><dc:type
           rdf:resource="http://purl.org/dc/dcmitype/StillImage" /><dc:title></dc:title></cc:Work></rdf:RDF></metadata><defs
     id="defs124" /><sodipodi:namedview
     pagecolor="#ffffff"
     bordercolor="#666666"
     borderopacity="1"
     objecttolerance="10"
     gridtolerance="10"
     guidetolerance="10"
     inkscape:pageopacity="0"
     inkscape:pageshadow="2"
     inkscape:window-width="1280"
     inkscape:window-height="957"
     id="namedview122"
     showgrid="false"
     inkscape:zoom="7.552"
     inkscape:cx="49.947674"
     inkscape:cy="86.220819"
     inkscape:window-x="-8"
     inkscape:window-y="-8"
     inkscape:window-maximized="1"
     inkscape:current-layer="svg2" /><g
     id="g114"
     transform="matrix(1.3843679,0,0,1.3843679,-17.840911,-18.903376)"><path
       d="m 84.256,34.154 c -1.137,-1.361 -3.15,-1.545 -4.514,-0.41 L 49,59.373 18.258,33.744 c -1.361,-1.132 -3.381,-0.947 -4.514,0.41 -1.135,1.358 -0.951,3.381 0.408,4.514 l 32.795,27.338 c 0.594,0.496 1.324,0.744 2.053,0.744 0.73,0 1.459,-0.248 2.053,-0.744 L 83.848,38.668 c 1.359,-1.133 1.543,-3.155 0.408,-4.514 z"
       id="path116"
       inkscape:connector-curvature="0" /></g><path
     sodipodi:type="arc"
     style="fill:none;stroke:#000000;stroke-width:5;stroke-miterlimit:4;stroke-opacity:1;stroke-dasharray:none"
     id="path3105"
     sodipodi:cx="32.176907"
     sodipodi:cy="45.550846"
     sodipodi:rx="17.213984"
     sodipodi:ry="17.611229"
     d="M 49.39089,45.550846 A 17.213984,17.611229 0 0 1 20.392904,58.388668"
     transform="matrix(-1.2581238,-0.57758008,0.57758008,-1.2581238,63.503542,140.60035)"
     sodipodi:start="0"
     sodipodi:end="2.3247961"
     sodipodi:open="true" /></svg>