<svg xmlns="http://www.w3.org/2000/svg" xmlns:xlink="http://www.w3.org/1999/xlink" version="1.1" id="&#1057;&#1083;&#1086;&#1081;_1" x="0px" y="0px" width="100px" height="100px" viewBox="0 0 100 100" enable-background="new 0 0 100 100" xml:space="preserve">
<path fill="none" d="M30.159,52.5h-20.08c0.787,12.438,7.405,23.896,17.799,30.816l10.043-17.396  C33.646,62.67,30.836,57.813,30.159,52.5z"/>
<path fill="none" d="M50,30c2.661,0,5.3,0.54,7.751,1.575L67.794,14.18C62.283,11.439,56.182,10,50,10  c-6.182,0-12.284,1.439-17.794,4.18l10.043,17.395C44.7,30.54,47.338,30,50,30z"/>
<path fill="none" d="M50,45c-2.757,0-5,2.243-5,5s2.243,5,5,5s5-2.243,5-5S52.757,45,50,45z"/>
<path fill="none" d="M62.078,65.921l10.044,17.396C82.516,76.396,89.134,64.938,89.921,52.5h-20.08  C69.164,57.813,66.354,62.67,62.078,65.921z"/>
<path d="M60,50c0-5.514-4.486-10-10-10c-5.514,0-10,4.486-10,10c0,5.514,4.486,10,10,10C55.514,60,60,55.514,60,50z M50,55  c-2.757,0-5-2.243-5-5s2.243-5,5-5s5,2.243,5,5S52.757,55,50,55z"/>
<path d="M26.264,13.222c0.002,0.433,0.12,0.844,0.324,1.226l12.504,21.658c0.68,1.179,2.238,1.598,3.417,0.914  c4.565-2.642,10.414-2.642,14.982,0c1.181,0.684,2.736,0.265,3.417-0.914l12.504-21.658c0.684-1.166,0.249-2.744-0.913-3.414  c-13.754-7.958-31.157-7.971-44.926-0.039C26.764,11.434,26.251,12.3,26.264,13.222C26.264,13.311,26.263,13.15,26.264,13.222  C26.266,13.655,26.263,13.15,26.264,13.222C26.266,13.655,26.263,13.15,26.264,13.222C26.266,13.655,26.263,13.15,26.264,13.222  C26.266,13.655,26.263,13.15,26.264,13.222z M50,10c6.182,0,12.283,1.439,17.794,4.18L57.751,31.575  c-4.927-2.081-10.575-2.081-15.502,0L32.206,14.18C37.716,11.439,43.818,10,50,10z"/>
<path d="M92.5,47.5h-25c-1.381,0-2.5,1.119-2.5,2.5c0,5.326-2.877,10.3-7.509,12.979c-1.194,0.691-1.603,2.219-0.913,3.414  l12.504,21.658c0.668,1.182,2.248,1.582,3.417,0.914C86.378,80.935,95,66.004,95,50C95,48.619,93.881,47.5,92.5,47.5z   M72.122,83.316L62.078,65.921c4.276-3.251,7.086-8.108,7.763-13.421h20.08C89.134,64.938,82.516,76.396,72.122,83.316z"/>
<path d="M42.509,62.979C37.877,60.3,35,55.326,35,50c0-1.381-1.119-2.5-2.5-2.5h-25C6.119,47.5,5,48.619,5,50  c0,15.963,8.58,30.855,22.397,38.901c1.168,0.779,2.827,0.352,3.52-0.85l12.504-21.658C44.112,65.198,43.703,63.671,42.509,62.979  C37.877,60.3,43.703,63.671,42.509,62.979z M27.878,83.316C17.484,76.396,10.866,64.938,10.079,52.5h20.08  c0.677,5.313,3.487,10.17,7.763,13.421L27.878,83.316z"/>
</svg>