<?xml version="1.0" encoding="UTF-8" standalone="no"?>
<svg
   xmlns:dc="http://purl.org/dc/elements/1.1/"
   xmlns:cc="http://creativecommons.org/ns#"
   xmlns:rdf="http://www.w3.org/1999/02/22-rdf-syntax-ns#"
   xmlns:svg="http://www.w3.org/2000/svg"
   xmlns="http://www.w3.org/2000/svg"
   xmlns:sodipodi="http://sodipodi.sourceforge.net/DTD/sodipodi-0.dtd"
   xmlns:inkscape="http://www.inkscape.org/namespaces/inkscape"
   version="1.1"
   width="100"
   height="100"
   viewBox="1.6 -3.2 32.0 43.2"
   id="svg2"
   inkscape:version="0.48.4 r9939"
   sodipodi:docname="storm_moderato.svg">
  <metadata
     id="metadata13">
    <rdf:RDF>
      <cc:Work
         rdf:about="">
        <dc:format>image/svg+xml</dc:format>
        <dc:type
           rdf:resource="http://purl.org/dc/dcmitype/StillImage" />
        <dc:title></dc:title>
      </cc:Work>
    </rdf:RDF>
  </metadata>
  <defs
     id="defs11" />
  <sodipodi:namedview
     pagecolor="#ffffff"
     bordercolor="#666666"
     borderopacity="1"
     objecttolerance="10"
     gridtolerance="10"
     guidetolerance="10"
     inkscape:pageopacity="0"
     inkscape:pageshadow="2"
     inkscape:window-width="1280"
     inkscape:window-height="957"
     id="namedview9"
     showgrid="false"
     inkscape:zoom="6.675088"
     inkscape:cx="43.945617"
     inkscape:cy="51.621015"
     inkscape:window-x="-8"
     inkscape:window-y="-8"
     inkscape:window-maximized="1"
     inkscape:current-layer="svg2" />
  <path
     id="rain1_1_"
     d="M 32.985548,10.814515 C 31.389631,7.7537468 28.251765,5.8247689 24.739206,5.8247689 c -0.811065,0 -1.611337,0.1033106 -2.385395,0.3083898 -2.143309,-2.7893853 -5.423033,-4.4223091 -8.989561,-4.4223091 -5.4168655,0 -10.0612152,3.8903367 -11.1313277,9.0836204 -3.3167318,0.48263 -5.8732828,3.346028 -5.8732828,6.793826 0,3.785485 3.08081359,6.866299 6.8662978,6.866299 h 9.2779057 c 0.399364,-1.013061 0.866575,-2.073922 1.341495,-3.083898 H 3.2259373 c -2.0862566,0 -3.78240031,-1.699228 -3.78240031,-3.782401 0,-2.083173 1.69305981,-3.777775 3.76235501,-3.777775 h 0.00617 l 1.7794089,0.115647 0.11873,-1.504942 C 5.4478855,8.1454018 9.0730071,4.7962891 13.362708,4.7962891 c 2.901948,0 5.543306,1.4864386 7.066751,3.9751439 l 0.689251,1.1271645 1.219682,-0.5088431 c 0.758638,-0.3191833 1.571245,-0.479546 2.400814,-0.479546 2.565803,0 4.837093,1.5419486 5.785392,3.9304276 l 0.382403,0.960634 1.033106,0.01233 c 2.063127,0.02467 3.740767,1.717731 3.740767,3.776233 0,2.086257 -1.699227,3.782401 -3.785484,3.782401 H 21.280615 c 0.47492,1.009976 0.940589,2.070837 1.341495,3.083897 h 9.27328 c 3.787026,0 6.869382,-3.080813 6.869382,-6.866298 0,-3.396913 -2.513377,-6.247976 -5.779224,-6.775323 z M 12.974137,28.425113 c 0,2.533421 2.055418,4.588839 4.588839,4.588839 2.533422,0 4.590382,-2.055418 4.590382,-4.588839 0,-2.534964 -4.590382,-10.99718 -4.590382,-10.99718 0,0 -4.588839,8.466842 -4.588839,10.99718 z"
     inkscape:connector-curvature="0" />
  <path
     style="fill:#abc837;fill-opacity:1;fill-rule:nonzero;stroke:none"
     d="m 61.11053,62.566215 c -0.323214,-0.807564 -1.008576,-2.395251 -1.523025,-3.528194 l -0.935362,-2.059898 12.609021,-0.0026 c 10.50942,-0.0022 12.783641,-0.03926 13.657696,-0.222775 4.040333,-0.848278 6.961772,-4.462831 6.961772,-8.613459 0,-2.445587 -0.807426,-4.401923 -2.541266,-6.157305 -1.863542,-1.88669 -3.90412,-2.6718 -6.967289,-2.680649 l -1.498108,-0.0043 -0.666296,-1.663103 c -1.4844,-3.705114 -3.643901,-6.225095 -6.787842,-7.920914 -2.229273,-1.202455 -4.181555,-1.682385 -6.852789,-1.684624 -2.370916,-0.002 -3.675264,0.271612 -6.277391,1.316738 -1.104281,0.443527 -2.058334,0.77517 -2.120116,0.736988 -0.06178,-0.03818 -0.527204,-0.744538 -1.03427,-1.569678 -2.951288,-4.802575 -6.172344,-7.502727 -10.792676,-9.047304 -8.196278,-2.740016 -17.321982,0.356231 -22.062118,7.485423 -2.142629,3.22253 -3.009415,5.951243 -3.393805,10.683984 -0.08285,1.020033 -0.169978,1.873473 -0.193626,1.896532 -0.02365,0.02306 -0.885681,-0.02429 -1.91563,-0.105233 -3.296104,-0.25902 -5.008383,0.08252 -6.960915,1.388449 -1.75349,1.172806 -2.99424,2.894494 -3.6083766,5.00705 -0.331892,1.141668 -0.3363938,3.278365 -0.00958,4.54823 0.6294576,2.445834 2.4475875,4.625664 4.7611155,5.708296 1.922824,0.899796 1.836593,0.894837 15.608938,0.89769 9.989564,0.0021 12.547271,0.04096 12.487455,0.189864 -0.04137,0.102995 -0.577362,1.333316 -1.191084,2.734046 -0.613722,1.400731 -1.244379,2.86901 -1.401459,3.262843 L 38.177903,63.878334 26.043232,63.834564 13.908561,63.790794 12.560264,63.37472 C 6.9746713,61.651056 2.9454949,57.585076 1.4710095,52.184178 0.98829231,50.416032 0.82511173,47.717948 1.0896564,45.878754 2.0190661,39.417224 7.1496061,33.946133 13.47912,32.66691 l 1.015656,-0.205267 0.200036,-0.812749 c 1.216032,-4.940739 3.799957,-9.370252 7.55279,-12.94742 1.908735,-1.81939 3.832688,-3.163807 6.323535,-4.418748 3.281019,-1.653045 6.01478,-2.418063 9.743344,-2.726582 8.227652,-0.680796 16.398501,2.759056 21.916477,9.226633 l 0.753197,0.882817 1.255883,-0.266714 c 0.766299,-0.16274 2.190302,-0.294117 3.652855,-0.337009 3.76714,-0.110476 6.578311,0.47293 9.920291,2.058774 3.737134,1.773353 6.94179,4.680436 9.035452,8.196453 l 0.67883,1.140001 1.309575,0.347642 c 4.677657,1.241736 8.285021,4.150116 10.37955,8.368346 1.193069,2.402757 1.600132,4.097344 1.619392,6.741485 0.02324,3.190338 -0.56439,5.447027 -2.115986,8.126093 -2.237311,3.863055 -5.946375,6.549509 -10.45284,7.570933 -1.280569,0.290249 -1.931513,0.308547 -12.958631,0.364257 l -11.610334,0.05865 -0.587662,-1.468295 0,0 z"
     id="path2982"
     inkscape:connector-curvature="0"
     transform="matrix(0.432,0,0,0.432,-4,-3.2)" />
  <path
     style="fill:#abc837;fill-opacity:1;fill-rule:nonzero;stroke:none"
     d="m 48.43994,83.643764 c -2.403571,-0.38351 -4.205002,-1.323719 -5.997538,-3.130257 -1.009415,-1.017301 -1.410417,-1.556495 -1.90528,-2.561878 -1.073118,-2.180187 -1.38766,-4.579782 -0.883681,-6.741484 0.874542,-3.751149 3.419645,-9.785158 7.793745,-18.477653 2.127661,-4.228227 2.42264,-4.739372 2.597251,-4.500578 0.373443,0.510716 4.671765,9.139441 5.879409,11.802702 2.288208,5.04627 3.684176,8.720912 4.265888,11.22921 1.075667,4.638186 -1.703099,9.82991 -6.234403,11.648081 -1.793817,0.719762 -3.867033,0.994864 -5.515391,0.731857 z"
     id="path2984"
     inkscape:connector-curvature="0"
     transform="matrix(0.432,0,0,0.432,-4,-3.2)" />
</svg>
