<?xml version="1.0" encoding="UTF-8" standalone="no"?>
<svg
   xmlns:dc="http://purl.org/dc/elements/1.1/"
   xmlns:cc="http://creativecommons.org/ns#"
   xmlns:rdf="http://www.w3.org/1999/02/22-rdf-syntax-ns#"
   xmlns:svg="http://www.w3.org/2000/svg"
   xmlns="http://www.w3.org/2000/svg"
   xmlns:sodipodi="http://sodipodi.sourceforge.net/DTD/sodipodi-0.dtd"
   xmlns:inkscape="http://www.inkscape.org/namespaces/inkscape"
   version="1.1"
   x="0px"
   y="0px"
   viewBox="0 0 110 137.5"
   enable-background="new 0 0 110 110"
   xml:space="preserve"
   id="svg2"
   inkscape:version="0.48.4 r9939"
   width="100%"
   height="100%"
   sodipodi:docname="info-noun_1070609_cc.svg"><metadata
     id="metadata14"><rdf:RDF><cc:Work
         rdf:about=""><dc:format>image/svg+xml</dc:format><dc:type
           rdf:resource="http://purl.org/dc/dcmitype/StillImage" /><dc:title></dc:title></cc:Work></rdf:RDF></metadata><defs
     id="defs12" /><sodipodi:namedview
     pagecolor="#ffffff"
     bordercolor="#666666"
     borderopacity="1"
     objecttolerance="10"
     gridtolerance="10"
     guidetolerance="10"
     inkscape:pageopacity="0"
     inkscape:pageshadow="2"
     inkscape:window-width="1440"
     inkscape:window-height="833"
     id="namedview10"
     showgrid="false"
     inkscape:zoom="3.4327273"
     inkscape:cx="24.971141"
     inkscape:cy="74.881719"
     inkscape:window-x="-8"
     inkscape:window-y="-8"
     inkscape:window-maximized="1"
     inkscape:current-layer="svg2" /><rect
     style="fill:#3c3c3c;fill-opacity:1;fill-rule:nonzero;stroke:none"
     id="rect3759"
     width="44.862289"
     height="75.158897"
     x="32.91843"
     y="17.478813" /><path
     d="M55,9.265C29.741,9.265,9.265,29.741,9.265,55c0,25.259,20.476,45.735,45.735,45.735c25.259,0,45.735-20.477,45.735-45.735  C100.735,29.741,80.259,9.265,55,9.265z M51.835,83.678c0.326,0.348,0.706,0.522,1.142,0.522c0.564,0,1.195-0.283,1.893-0.849  c2-1.566,4.023-3.807,6.068-6.721l1.827,1.239c-2.394,3.61-5.199,6.678-8.417,9.2c-2.349,1.827-4.612,2.741-6.786,2.741  c-1.436,0-2.61-0.425-3.523-1.272c-0.914-0.849-1.371-1.925-1.371-3.23c0-1.305,0.434-3.458,1.305-6.459l6.851-23.556  c1.086-3.828,1.631-6.242,1.631-7.243c0-0.739-0.273-1.359-0.815-1.86c-0.545-0.5-1.272-0.75-2.186-0.75  c-0.783,0-2.394,0.196-4.829,0.587v-2.022l18.14-3.001L52.39,77.87c-0.697,2.479-1.044,3.959-1.044,4.438  C51.346,82.873,51.509,83.33,51.835,83.678z M65.799,29.128c-1.023,1.044-2.251,1.566-3.687,1.566s-2.675-0.522-3.72-1.566  c-1.044-1.044-1.565-2.284-1.565-3.719s0.51-2.665,1.533-3.687c1.021-1.022,2.271-1.534,3.752-1.534c1.478,0,2.718,0.511,3.72,1.534  c0.999,1.022,1.5,2.251,1.5,3.687S66.82,28.084,65.799,29.128z"
     id="path4"
     style="fill:#ffd700;fill-opacity:1;stroke:none;stroke-opacity:1"
     inkscape:export-filename="C:\Users\riccardo\Downloads\info_basso.png"
     inkscape:export-xdpi="90"
     inkscape:export-ydpi="90" /><text
     x="0"
     y="125"
     fill="#000000"
     font-size="5px"
     font-weight="bold"
     font-family="'Helvetica Neue', Helvetica, Arial-Unicode, Arial, Sans-serif"
     id="text6">Created by Trevor Dsouza</text>
<text
     x="0"
     y="130"
     fill="#000000"
     font-size="5px"
     font-weight="bold"
     font-family="'Helvetica Neue', Helvetica, Arial-Unicode, Arial, Sans-serif"
     id="text8">from the Noun Project</text>
</svg>