<?xml version="1.0" encoding="UTF-8" standalone="no"?>
<svg
   xmlns:dc="http://purl.org/dc/elements/1.1/"
   xmlns:cc="http://creativecommons.org/ns#"
   xmlns:rdf="http://www.w3.org/1999/02/22-rdf-syntax-ns#"
   xmlns:svg="http://www.w3.org/2000/svg"
   xmlns="http://www.w3.org/2000/svg"
   xmlns:sodipodi="http://sodipodi.sourceforge.net/DTD/sodipodi-0.dtd"
   xmlns:inkscape="http://www.inkscape.org/namespaces/inkscape"
   version="1.1"
   width="200"
   height="200"
   viewBox="-25 -25 50 50"
   id="svg2"
   inkscape:version="0.48.4 r9939"
   sodipodi:docname="Symbol_wind_speed_00b.svg">
  <metadata
     id="metadata13">
    <rdf:RDF>
      <cc:Work
         rdf:about="">
        <dc:format>image/svg+xml</dc:format>
        <dc:type
           rdf:resource="http://purl.org/dc/dcmitype/StillImage" />
        <dc:title></dc:title>
      </cc:Work>
    </rdf:RDF>
  </metadata>
  <defs
     id="defs11" />
  <sodipodi:namedview
     pagecolor="#ffffff"
     bordercolor="#666666"
     borderopacity="1"
     objecttolerance="10"
     gridtolerance="10"
     guidetolerance="10"
     inkscape:pageopacity="0"
     inkscape:pageshadow="2"
     inkscape:window-width="1280"
     inkscape:window-height="957"
     id="namedview9"
     showgrid="false"
     inkscape:zoom="3.337544"
     inkscape:cx="131.25751"
     inkscape:cy="96.684047"
     inkscape:window-x="-8"
     inkscape:window-y="-8"
     inkscape:window-maximized="1"
     inkscape:current-layer="svg2" />
  <desc
     id="en">Observed wind speed: 0–2 knots</desc>
  <g
     style="fill:none;stroke:#000000;stroke-width:2.5"
     id="g5"
     transform="scale(0.38961039,0.38961039)">
    <circle
       r="18"
       id="circle7"
       cx="0"
       cy="0"
       sodipodi:cx="0"
       sodipodi:cy="0"
       sodipodi:rx="18"
       sodipodi:ry="18"
       d="M 18,0 C 18,9.9411255 9.9411255,18 0,18 -9.9411255,18 -18,9.9411255 -18,0 c 0,-9.9411255 8.0588745,-18 18,-18 9.9411255,0 18,8.0588745 18,18 z" />
  </g>
  <path
     style="fill:#483737;fill-opacity:1;fill-rule:nonzero;stroke:none"
     d="m 95.651661,125.59045 c -8.576825,-1.52769 -16.070929,-7.47598 -19.447218,-15.43583 -1.558062,-3.67325 -2.028249,-6.14101 -1.993736,-10.464087 0.03529,-4.420505 0.736456,-7.373561 2.688825,-11.324382 5.439776,-11.007947 18.422275,-16.693872 30.238448,-13.243487 5.01703,1.465 9.86102,4.669602 13.02302,8.615544 1.78244,2.224358 4.26676,7.090381 5.00847,9.810084 0.75622,2.772912 0.74884,10.156828 -0.0129,12.883728 -2.50799,8.97832 -9.20562,15.83267 -18.0186,18.44023 -3.01797,0.89295 -8.559833,1.23947 -11.48632,0.7182 l -9e-6,0 z"
     id="path2984"
     inkscape:connector-curvature="0"
     transform="matrix(0.25,0,0,0.25,-25,-25)" />
</svg>
